<svg xmlns="http://www.w3.org/2000/svg" xml:space="preserve" width="1500" height="113" data-id="lg_MyMWXhv6PcQS52cGNL" data-version="1" viewBox="0 0 1500 113"><g data-padding="20"><g transform="translate(10 2.018)scale(.96429)"><rect width="418.944" height="71.19" x="157.601" y="-379.175" fill="none" rx="0" ry="0" transform="translate(329.97 399.73)"/><path fill="#3581c4" d="m504.263 77.76-8.82-1.82V33.79q5.73-1.58 12.82-2.08t8.91.76q1.89 1.7 5.93 5.73 4.03 4.03 5.6 5.86.95 1.13.51 3.81t-2.21 5.61q-1.76 2.93-4.91 5.41-3.15 2.49-7.63 3.28-4.47.79-10.26-.91Zm15.62-38.24q-3.34-3.72-15.75-1.32l.07 20.1q4.53.5 8.06-.92t5.35-3.87q1.83-2.46 2.75-5.26.91-2.81.72-5.2t-1.2-3.53m18.78 14.31h-.07l-3.4-5.73q4.41-1.13 9.8-2.14 5.38-1.01 6.77-.95 1.39.07 5.54 4.13 4.16 4.06 5.61 6.2.51.76.51 5.08 0 4.31-.16 9.86-.16 5.54-.1 7.49l-7.81-1.82.06-3.22q-5.1 5.11-8.31 5.11-3.03-.07-7.69-5.74t-4.66-8.12q0-1.96 2.65-3.6 2.64-1.63 6.45-2.55 3.82-.91 6.78-1.41 2.96-.51 5.04-.7l.06-1.7q.06-3.02-3.21-3.27-3.03-.19-12.73 2.7h-.06l-.07.07h-.12l-.06.06h-.13l-.06.06h-.13l-.06.07h-.19l-.06.06h-.13Zm3.08 15.82q.57.88 2.15 1.13 1.57.25 4.75-.85t6.9-3.88l.06-5.54q-16.63 4.85-13.86 9.14m33.96-27.67q-3.21-1.51-4.79-4.6.13-1.01 1.89-2.58 1.77-1.58 2.84-1.83 3.21 1.45 4.72 4.47-1.07 2.71-4.66 4.54m-4.09 3.84 7.87 1.77v30.17l-7.87-1.76Zm16.69.01 8.19 1.77v2.58q5.61-5.23 9.83-4.98 2.01.13 7.09 5.01 5.07 4.88 5.38 6.65.25 1.63.25 20.91l-7.81-1.76q.38-21.61-.31-22.87-1.14-2.14-3.75-1.29-2.62.85-5.42 3.05-2.8 2.21-5.26 5.17v17.7l-8.19-1.76Zm44.04 17.57 14.3-9.77q-4.54-2.89-7.72-2.14-3.18.76-4.88 3.94t-1.7 7.97m6.36 2.46-4.91 3.59q1.76 2.14 3.97 2.64 2.2.51 4.63-.6 2.42-1.1 4.06-2.2t3.84-2.93l1.26 1.26q1.2 1.32 2.4 2.65l1.26 1.26q-5.48 4.03-9.26 5.38-3.78 1.36-7.5-.03-5.42-2.08-10.21-7.31-2.83-3.15-3.27-7.46-.44-4.32 1.1-8.04 1.54-3.71 4.79-6.33 3.24-2.61 7.08-2.61 2.52 0 7.47 3.24 4.95 3.25 8.22 6.33-.06.19-5.01 3.88-4.94 3.68-9.92 7.28m40.38 2.2q1.64-2.2 2.62-4.69.97-2.49 1.07-4.7.09-2.2-.38-4.19-.47-1.98-1.79-3.21-1.33-1.23-3.06-1.67t-4.25.38-5.36 2.9l-.12 17.83q1.13.75 2.89 1 1.77.26 4.19-.56 2.43-.82 4.19-3.09m-4.22 9.45q-1.45-.38-3.65-1.57-2.21-1.2-3.28-1.96v17.96l-7.87-1.77q-.19-41.89 0-42.77 3.97-1.14 6.33-1.61t5.39-.63q3.02-.16 5.76.76 2.74.91 5.64 2.8 3.78 2.52 5.54 5.95 1.77 3.44 1.55 6.74-.22 3.31-1.7 6.56-1.49 3.24-3.75 5.54-2.27 2.3-4.95 3.43-2.68 1.14-5.01.57m25.08-23.68h-.07l-3.4-5.73q4.41-1.13 9.8-2.14 5.38-1.01 6.77-.95 1.39.07 5.54 4.13 4.16 4.06 5.61 6.2.51.76.51 5.08 0 4.31-.16 9.86-.16 5.54-.1 7.49l-7.81-1.82.06-3.22q-5.1 5.11-8.31 5.11-3.03-.07-7.69-5.74t-4.66-8.12q0-1.96 2.65-3.6 2.64-1.63 6.45-2.55 3.82-.91 6.78-1.41 2.96-.51 5.04-.7l.06-1.7q.06-3.02-3.21-3.27-3.03-.19-12.73 2.7h-.06l-.07.07h-.12l-.06.06h-.13l-.06.06h-.13l-.06.07h-.19l-.06.06h-.13Zm3.08 15.82q.57.88 2.15 1.13 1.57.25 4.75-.85t6.9-3.88l.06-5.54q-16.63 4.85-13.86 9.14m29.24-23.82 7.87 1.77v4.66q4.6-7.25 7.81-7.25 1.58 0 5.29 1.61 3.72 1.61 6.24 3.31l-4.35 6.3q-3.9-2.9-6.77-3.18-2.86-.29-4.57 1.13-1.7 1.42-3.65 4.57v19.02l-7.87-1.76Zm32.82 4.4h-3.28l-1.89-4.41h5.17v-6.8l7.75 1.76v5.04h7.68l1.89 4.41h-9.57v10.08q0 1.7-.03 3.4-.04 1.7.19 3.22.22 1.51.53 2.77.32 1.26 1.07 2.01.76.76 1.83 1.01t2.74-.34q1.67-.6 3.81-1.99l1.7 1.95q-3.65 3.34-6.11 4.67-1.89 1.07-5.2-.35-3.3-1.42-5.79-3.97t-2.49-4.44Zm24.82-4.4 8.19 1.77v2.58q5.61-5.23 9.83-4.98 2.01.13 7.09 5.01 5.07 4.88 5.38 6.65.25 1.63.25 20.91l-7.81-1.76q.38-21.61-.31-22.87-1.14-2.14-3.75-1.29-2.62.85-5.42 3.05-2.8 2.21-5.26 5.17v17.7l-8.19-1.76Zm44.04 17.57 14.3-9.77q-4.54-2.89-7.72-2.14-3.18.76-4.88 3.94t-1.7 7.97m6.36 2.46-4.91 3.59q1.76 2.14 3.97 2.64 2.2.51 4.63-.6 2.42-1.1 4.06-2.2t3.84-2.93l1.26 1.26q1.2 1.32 2.4 2.65l1.26 1.26q-5.48 4.03-9.26 5.38-3.78 1.36-7.5-.03-5.42-2.08-10.21-7.31-2.83-3.15-3.27-7.46-.44-4.32 1.1-8.04 1.54-3.71 4.79-6.33 3.24-2.61 7.08-2.61 2.52 0 7.47 3.24 4.95 3.25 8.22 6.33-.06.19-5.01 3.88-4.94 3.68-9.92 7.28m22.11-20.03 7.88 1.77v4.66q4.6-7.25 7.81-7.25 1.58 0 5.29 1.61 3.72 1.61 6.24 3.31l-4.35 6.3q-3.9-2.9-6.77-3.18-2.87-.29-4.57 1.13t-3.65 4.57v19.02l-7.88-1.76Zm35.78-3.85q-3.22-1.51-4.79-4.6.13-1.01 1.89-2.58 1.76-1.58 2.83-1.83 3.22 1.45 4.73 4.47-1.07 2.71-4.66 4.54m-4.1 3.84 7.88 1.77v30.17l-7.88-1.76Zm150.59 33.72h-12.8V68.711c10.19-12.979 15.36-26.137 15.36-39.091 0-16.23-13.21-29.44-29.44-29.44a29.44 29.44 0 0 0-28.16 20.838A29.44 29.44 0 0 0 961.483.18C947.06.179 934.76 10.625 932.427 24.858v.013a1.28 1.28 0 0 0-.205 1.523q-.179 1.6-.179 3.226 0 1.664.128 3.328c-.18.384-.128.806.09 1.165 1.433 15.923 10.29 29.952 20.608 41.177l.025.039h.026c15.705 17.075 34.752 27.648 36.11 28.377a1.28 1.28 0 0 0 1.227 0c.154-.09 3.56-1.958 8.692-5.376q.358.397.934.41h12.8v12.8a1.28 1.28 0 0 0 1.28 1.28h16.64a1.28 1.28 0 0 0 1.28-1.28v-12.8h12.8a1.28 1.28 0 0 0 1.28-1.28V80.82a1.28 1.28 0 0 0-1.28-1.28m-8.205 2.56-21.235 21.235V97.46a1.3 1.3 0 0 0-.166-.589l14.937-14.937q.27.166.59.166Zm-30.963 14.08 23.808-23.795v6.63l-17.165 17.165Zm-4.352 0v-4.595l9.485-9.485h3.315a1.28 1.28 0 0 0 1.28-1.28v-3.315l9.485-9.485h4.595v.755l-27.405 27.405Zm0-8.205V82.1h5.875Zm14.08-14.08V68.02h5.875Zm-25.6 27.213c-1.152-.653-3.84-2.24-7.424-4.646l3.2-3.213a1.28 1.28 0 1 0-1.792-1.818l-3.57 3.571q-2.51-1.728-5.339-3.84l4.314-4.313a1.285 1.285 0 0 0-1.818-1.818l-4.557 4.557q-2.137-1.651-4.39-3.507l4.352-4.352a1.28 1.28 0 1 0-1.792-1.818l-4.518 4.519q-2.394-2.074-4.826-4.352l4.762-4.75a1.285 1.285 0 0 0-1.818-1.817l-4.8 4.813q-1.984-1.92-3.904-3.994l5.402-5.401a1.285 1.285 0 1 0-1.818-1.818l-5.325 5.325a110 110 0 0 1-3.648-4.25l5.67-5.657a1.285 1.285 0 1 0-1.817-1.818l-5.44 5.44a90 90 0 0 1-3.34-4.672 1.3 1.3 0 0 0 .358-.23l5.76-5.76a1.285 1.285 0 0 0-1.818-1.818l-5.683 5.696q-1.319-2.112-2.47-4.275.191-.077.37-.256l6.4-6.4a1.28 1.28 0 1 0-1.817-1.792l-6.144 6.144a63 63 0 0 1-2.035-4.608l8.704-8.704a1.28 1.28 0 1 0-1.792-1.792l-7.872 7.86a54 54 0 0 1-1.485-5.044 1.28 1.28 0 0 0 .87-.346l10.24-9.6a1.281 1.281 0 1 0-1.753-1.868l-9.856 9.254q-.384-2.048-.576-4.16L948.3 20.289a1.28 1.28 0 1 0-1.805-1.818L934.63 30.35l-.026-.73q.026-1.818.256-3.584l17.28-17.28a1.28 1.28 0 1 0-1.792-1.792l-14.45 14.413A26.88 26.88 0 0 1 961.482 2.74c14.822 0 26.88 12.058 26.88 26.88a1.28 1.28 0 1 0 2.56 0c0-14.822 12.058-26.88 26.88-26.88s26.88 12.058 26.88 26.88c0 11.853-4.57 23.936-13.594 35.93a1.3 1.3 0 0 0-.486-.09h-16.64a1.28 1.28 0 0 0-1.28 1.28v12.8h-12.8a1.28 1.28 0 0 0-1.28 1.28v14.643c-4.34 2.944-7.654 4.903-8.96 5.645m32.525 9.152 7.155-7.155v7.155Zm8.435-14.08a1.28 1.28 0 0 0-1.28 1.28v2.035l-10.765 10.765h-3.315v-3.315l24.845-24.845h3.315v3.315l-10.765 10.765Zm5.645 0 7.155-7.155v7.155Z"/></g><path fill="transparent" stroke="transparent" d="M470 0h560v113H470z"/></g></svg>